<?xml version="1.0" encoding="UTF-8" standalone="no" ?>
<!DOCTYPE svg PUBLIC "-//W3C//DTD SVG 1.1//EN" "http://www.w3.org/Graphics/SVG/1.1/DTD/svg11.dtd">
<svg xmlns="http://www.w3.org/2000/svg" xmlns:xlink="http://www.w3.org/1999/xlink" version="1.1" width="350" height="350" viewBox="0 0 350 350" xml:space="preserve">
<desc>Created with Fabric.js 1.7.22</desc>
<defs>
</defs>
<g id="icon" style="stroke: none; stroke-width: 1; stroke-dasharray: none; stroke-linecap: butt; stroke-linejoin: miter; stroke-miterlimit: 10; fill: none; fill-rule: nonzero; opacity: 1;" transform="translate(-1.9444444444444287 -1.9444444444444287) scale(3.89 3.89)" >
	<path d="M 44.305 31.561 c 6.832 0.528 14.449 4.178 22.215 8.422 c 8.992 1.144 18.37 1.847 22.724 8.299 c 0.172 0.255 0.256 0.56 0.256 0.868 v 3.882 c 0 0.901 -0.687 1.653 -1.584 1.733 l -9.333 0.7 l -13.669 -0.137 l -38.155 -0.712 l -14.065 -0.696 l -8.606 -0.656 C 3.161 53.208 2.34 52.645 1.954 51.8 l -1.311 -2.877 c -0.173 -0.38 -0.19 -0.812 -0.048 -1.205 L 3.25 40.41 c 0.27 -0.744 0.929 -1.28 1.713 -1.392 l 6.823 -0.98 c 4.33 -4.648 13.403 -6.634 23.641 -6.506 l 9.119 0.05" style="stroke: none; stroke-width: 1; stroke-dasharray: none; stroke-linecap: butt; stroke-linejoin: miter; stroke-miterlimit: 10; fill: rgb(234,6,6); fill-rule: nonzero; opacity: 1;" transform=" matrix(1 0 0 1 0 0) " stroke-linecap="round" />
	<circle cx="19.759999999999998" cy="53.55" r="7.08" style="stroke: none; stroke-width: 1; stroke-dasharray: none; stroke-linecap: butt; stroke-linejoin: miter; stroke-miterlimit: 10; fill: rgb(25,25,25); fill-rule: nonzero; opacity: 1;" transform="  matrix(1 0 0 1 0 0) "/>
	<circle cx="71.77" cy="53.55" r="7.08" style="stroke: none; stroke-width: 1; stroke-dasharray: none; stroke-linecap: butt; stroke-linejoin: miter; stroke-miterlimit: 10; fill: rgb(25,25,25); fill-rule: nonzero; opacity: 1;" transform="  matrix(1 0 0 1 0 0) "/>
	<circle cx="19.758" cy="53.548" r="2.528" style="stroke: none; stroke-width: 1; stroke-dasharray: none; stroke-linecap: butt; stroke-linejoin: miter; stroke-miterlimit: 10; fill: rgb(158,158,158); fill-rule: nonzero; opacity: 1;" transform="  matrix(1 0 0 1 0 0) "/>
	<circle cx="71.768" cy="53.548" r="2.528" style="stroke: none; stroke-width: 1; stroke-dasharray: none; stroke-linecap: butt; stroke-linejoin: miter; stroke-miterlimit: 10; fill: rgb(158,158,158); fill-rule: nonzero; opacity: 1;" transform="  matrix(1 0 0 1 0 0) "/>
	<path d="M 44.305 31.561 c 6.832 0.528 14.449 4.178 22.215 8.422 c -15.391 1.749 -30.482 1.065 -45.337 -1.537 c 2.653 -3.687 4.436 -5.094 8.678 -6.762 l -0.046 0.003 c 1.814 -0.128 3.693 -0.178 5.613 -0.154 l 9.119 0.05" style="stroke: none; stroke-width: 1; stroke-dasharray: none; stroke-linecap: butt; stroke-linejoin: miter; stroke-miterlimit: 10; fill: rgb(150,226,226); fill-rule: nonzero; opacity: 1;" transform=" matrix(1 0 0 1 0 0) " stroke-linecap="round" />
	<path d="M 19.762 61.13 c -4.179 0 -7.58 -3.4 -7.58 -7.579 c 0 -4.18 3.4 -7.58 7.58 -7.58 s 7.58 3.4 7.58 7.58 C 27.342 57.729 23.941 61.13 19.762 61.13 z M 19.762 46.971 c -3.628 0 -6.58 2.952 -6.58 6.58 s 2.952 6.579 6.58 6.579 s 6.58 -2.951 6.58 -6.579 S 23.39 46.971 19.762 46.971 z" style="stroke: none; stroke-width: 1; stroke-dasharray: none; stroke-linecap: butt; stroke-linejoin: miter; stroke-miterlimit: 10; fill: rgb(0,0,0); fill-rule: nonzero; opacity: 1;" transform=" matrix(1 0 0 1 0 0) " stroke-linecap="round" />
	<path d="M 71.766 61.13 c -4.179 0 -7.579 -3.4 -7.579 -7.579 c 0 -4.18 3.4 -7.58 7.579 -7.58 c 4.18 0 7.58 3.4 7.58 7.58 C 79.346 57.729 75.945 61.13 71.766 61.13 z M 71.766 46.971 c -3.628 0 -6.579 2.952 -6.579 6.58 s 2.951 6.579 6.579 6.579 s 6.58 -2.951 6.58 -6.579 S 75.394 46.971 71.766 46.971 z" style="stroke: none; stroke-width: 1; stroke-dasharray: none; stroke-linecap: butt; stroke-linejoin: miter; stroke-miterlimit: 10; fill: rgb(0,0,0); fill-rule: nonzero; opacity: 1;" transform=" matrix(1 0 0 1 0 0) " stroke-linecap="round" />
	<path d="M 1.705 44.665 c 4.059 -0.101 6.611 -2.377 8.002 -6.329 c 0 0 -4.743 0.681 -4.743 0.681 C 4.179 39.13 3.521 39.665 3.25 40.41 L 1.705 44.665 L 1.705 44.665 z" style="stroke: none; stroke-width: 1; stroke-dasharray: none; stroke-linecap: butt; stroke-linejoin: miter; stroke-miterlimit: 10; fill: rgb(168,5,5); fill-rule: nonzero; opacity: 1;" transform=" matrix(1 0 0 1 0 0) " stroke-linecap="round" />
	<path d="M 49.43 41.441 c -9.334 0 -18.811 -0.835 -28.333 -2.503 c -0.169 -0.03 -0.312 -0.145 -0.376 -0.304 c -0.065 -0.159 -0.043 -0.341 0.057 -0.48 c 2.739 -3.806 4.569 -5.232 8.9 -6.936 c 0.255 -0.1 0.547 0.025 0.648 0.282 c 0.101 0.257 -0.025 0.547 -0.282 0.648 c -3.859 1.518 -5.628 2.804 -7.98 5.941 c 15.054 2.565 29.986 3.034 44.399 1.396 c 0.269 -0.035 0.522 0.165 0.554 0.44 c 0.031 0.274 -0.166 0.522 -0.44 0.553 C 60.933 41.121 55.208 41.441 49.43 41.441 z" style="stroke: none; stroke-width: 1; stroke-dasharray: none; stroke-linecap: butt; stroke-linejoin: miter; stroke-miterlimit: 10; fill: rgb(0,0,0); fill-rule: nonzero; opacity: 1;" transform=" matrix(1 0 0 1 0 0) " stroke-linecap="round" />
	<path d="M 12.694 54.419 c -0.013 0 -0.025 0 -0.039 -0.001 L 4.05 53.762 c -1.107 -0.065 -2.087 -0.738 -2.551 -1.755 l -1.311 -2.876 c -0.229 -0.502 -0.251 -1.063 -0.063 -1.583 l 2.655 -7.309 c 0.334 -0.919 1.143 -1.577 2.111 -1.716 l 6.651 -0.955 c 4.182 -4.357 12.647 -6.67 23.891 -6.535 l 9.115 0.05 c 0.276 0.001 0.499 0.227 0.497 0.503 c -0.001 0.276 -0.234 0.537 -0.503 0.497 l -9.119 -0.05 c -10.915 -0.147 -19.387 2.176 -23.272 6.346 c -0.078 0.083 -0.182 0.138 -0.294 0.154 l -6.824 0.98 c -0.603 0.086 -1.106 0.496 -1.314 1.068 L 1.065 47.89 c -0.098 0.271 -0.086 0.564 0.033 0.826 l 1.311 2.877 c 0.309 0.678 0.963 1.127 1.708 1.171 l 8.615 0.656 c 0.275 0.021 0.481 0.262 0.46 0.537 C 13.172 54.22 12.953 54.419 12.694 54.419 z" style="stroke: none; stroke-width: 1; stroke-dasharray: none; stroke-linecap: butt; stroke-linejoin: miter; stroke-miterlimit: 10; fill: rgb(0,0,0); fill-rule: nonzero; opacity: 1;" transform=" matrix(1 0 0 1 0 0) " stroke-linecap="round" />
	<path d="M 89.5 49.149 c -6.652 0.36 -9.788 -2.173 -10.066 -7.058 l 0 -0.001 c 4.093 1.122 7.599 2.916 9.81 6.191 C 89.416 48.537 89.5 48.842 89.5 49.149 z" style="stroke: none; stroke-width: 1; stroke-dasharray: none; stroke-linecap: butt; stroke-linejoin: miter; stroke-miterlimit: 10; fill: rgb(150,226,226); fill-rule: nonzero; opacity: 1;" transform=" matrix(1 0 0 1 0 0) " stroke-linecap="round" />
	<path d="M 64.914 55.827 c -0.003 0 -0.006 0 -0.01 0 L 26.75 55.115 c -0.276 -0.005 -0.496 -0.233 -0.491 -0.51 c 0.005 -0.275 0.211 -0.507 0.509 -0.49 l 38.155 0.712 c 0.275 0.005 0.495 0.233 0.49 0.51 C 65.409 55.609 65.187 55.827 64.914 55.827 z" style="stroke: none; stroke-width: 1; stroke-dasharray: none; stroke-linecap: butt; stroke-linejoin: miter; stroke-miterlimit: 10; fill: rgb(0,0,0); fill-rule: nonzero; opacity: 1;" transform=" matrix(1 0 0 1 0 0) " stroke-linecap="round" />
	<path d="M 78.582 55.965 c -0.259 0 -0.478 -0.2 -0.498 -0.463 c -0.021 -0.275 0.187 -0.515 0.462 -0.536 l 9.333 -0.7 C 88.515 54.208 89 53.678 89 53.031 v -3.882 c 0 -0.219 -0.06 -0.423 -0.171 -0.588 c -3.916 -5.803 -12.317 -6.839 -20.441 -7.842 l -1.932 -0.241 c -0.062 -0.008 -0.121 -0.027 -0.177 -0.057 c -7.374 -4.029 -15.145 -7.831 -22.013 -8.362 c -0.275 -0.021 -0.481 -0.262 -0.46 -0.537 s 0.25 -0.488 0.537 -0.46 c 7.031 0.543 14.885 4.37 22.333 8.436 l 1.834 0.229 c 8.347 1.03 16.978 2.095 21.147 8.275 C 89.882 48.333 90 48.73 90 49.149 v 3.882 c 0 1.167 -0.877 2.126 -2.039 2.231 l -9.341 0.701 C 78.607 55.965 78.595 55.965 78.582 55.965 z" style="stroke: none; stroke-width: 1; stroke-dasharray: none; stroke-linecap: butt; stroke-linejoin: miter; stroke-miterlimit: 10; fill: rgb(0,0,0); fill-rule: nonzero; opacity: 1;" transform=" matrix(1 0 0 1 0 0) " stroke-linecap="round" />
	<path d="M 41.032 41.228 c -0.216 0 -0.416 -0.141 -0.479 -0.358 l -2.708 -9.18 c -0.078 -0.265 0.073 -0.543 0.338 -0.621 c 0.27 -0.079 0.544 0.074 0.621 0.338 l 2.708 9.18 c 0.078 0.265 -0.073 0.543 -0.338 0.621 C 41.126 41.221 41.078 41.228 41.032 41.228 z" style="stroke: none; stroke-width: 1; stroke-dasharray: none; stroke-linecap: butt; stroke-linejoin: miter; stroke-miterlimit: 10; fill: rgb(0,0,0); fill-rule: nonzero; opacity: 1;" transform=" matrix(1 0 0 1 0 0) " stroke-linecap="round" />
	<path d="M 19.762 56.579 c -1.67 0 -3.028 -1.358 -3.028 -3.028 s 1.358 -3.028 3.028 -3.028 s 3.028 1.358 3.028 3.028 S 21.432 56.579 19.762 56.579 z M 19.762 51.522 c -1.119 0 -2.028 0.91 -2.028 2.028 s 0.91 2.028 2.028 2.028 s 2.028 -0.91 2.028 -2.028 S 20.881 51.522 19.762 51.522 z" style="stroke: none; stroke-width: 1; stroke-dasharray: none; stroke-linecap: butt; stroke-linejoin: miter; stroke-miterlimit: 10; fill: rgb(0,0,0); fill-rule: nonzero; opacity: 1;" transform=" matrix(1 0 0 1 0 0) " stroke-linecap="round" />
	<path d="M 71.766 56.579 c -1.67 0 -3.028 -1.358 -3.028 -3.028 s 1.358 -3.028 3.028 -3.028 s 3.029 1.358 3.029 3.028 S 73.436 56.579 71.766 56.579 z M 71.766 51.522 c -1.118 0 -2.028 0.91 -2.028 2.028 s 0.91 2.028 2.028 2.028 c 1.119 0 2.029 -0.91 2.029 -2.028 S 72.885 51.522 71.766 51.522 z" style="stroke: none; stroke-width: 1; stroke-dasharray: none; stroke-linecap: butt; stroke-linejoin: miter; stroke-miterlimit: 10; fill: rgb(0,0,0); fill-rule: nonzero; opacity: 1;" transform=" matrix(1 0 0 1 0 0) " stroke-linecap="round" />
	<path d="M 88.299 49.683 c -5.93 0 -9.078 -2.54 -9.364 -7.563 l 0.998 -0.057 c 0.271 4.765 3.399 6.909 9.54 6.587 l 0.055 0.998 C 89.105 49.672 88.695 49.683 88.299 49.683 z" style="stroke: none; stroke-width: 1; stroke-dasharray: none; stroke-linecap: butt; stroke-linejoin: miter; stroke-miterlimit: 10; fill: rgb(0,0,0); fill-rule: nonzero; opacity: 1;" transform=" matrix(1 0 0 1 0 0) " stroke-linecap="round" />
	<path d="M 1.705 45.166 c -0.271 0 -0.493 -0.216 -0.5 -0.488 c -0.007 -0.276 0.211 -0.505 0.488 -0.512 c 3.689 -0.092 6.156 -2.053 7.542 -5.995 c 0.092 -0.261 0.375 -0.398 0.638 -0.306 c 0.26 0.092 0.397 0.377 0.306 0.638 c -1.519 4.319 -4.366 6.561 -8.461 6.663 C 1.713 45.166 1.708 45.166 1.705 45.166 z" style="stroke: none; stroke-width: 1; stroke-dasharray: none; stroke-linecap: butt; stroke-linejoin: miter; stroke-miterlimit: 10; fill: rgb(0,0,0); fill-rule: nonzero; opacity: 1;" transform=" matrix(1 0 0 1 0 0) " stroke-linecap="round" />
</g>
</svg>